<svg xmlns="http://www.w3.org/2000/svg" width="2000" height="2000" viewBox="0 0 2000 2000">
  <defs>
    <style>
      .cls-1 {
        fill-rule: evenodd;
      }
    </style>
  </defs>
  <path id="Preenchimento_de_Cor_1" data-name="Preenchimento de Cor 1" class="cls-1" d="M966,0c113.49-1.709,201.78,45.127,273,89q21,17,42,34c38.31,26.113,67.71,61.765,96,98,44.83,57.423,82.61,120.25,116,190,13.52,28.248,21.14,59.2,34,87,19.54,42.236,28.09,103.416,42,150,17.01,56.942,12.4,120.5,28,180q1.995,36.5,4,73c2.84,10.953-.07,28.272,2,42v163c-2.24,7.09.46,20.62-2,30-7.84,29.89-4.37,67.17-12,96q-0.495,12.495-1,25-10.5,58.995-21,118c-9.96,28.42-11.81,61.97-23,91-22.07,57.25-37.94,117.02-63,169-29.12,60.39-54.25,116.9-92,168-14.82,20.06-36.07,37.69-50,58-9.37,13.66-24.47,31.73-38,41q-30.99,23.505-62,47c-27.17,18.5-62.2,27.57-95,40-36.42,13.8-133.13,17.63-176,6-28.469-7.73-53.171-8-79-17-84.536-29.47-152.658-73.48-209-131-33.611-34.31-55.67-69.25-78-116-6.389-13.37-21.965-40.97-18-59q92.49,16.005,185,32c75.733,42.25,166.992,197.71,300,156q25.995-10.5,52-21c391.95-219.67,403-1168.668,136-1540-32.63-45.385-74.75-85.153-121-117-17.23-11.865-39.84-20.181-60-28-39.11-15.169-86.881-4.292-118,9-74.522,31.83-114.924,98.355-179,140-19.594,12.735-46.319,6.754-72,15-37.6,12.074-83.431,16.687-124,23V331l17-64c17.808-37.792,42.966-85.359,76-108,50.2-34.409,99.934-74.059,160-99,25.554-10.611,49.581-22.311,73-34C927.582,16.726,951.1,13.119,966,0Zm275,1428c0.89,60.03-37.58,126.43-74,150-62.62,40.53-267.649,20.89-340,0q-31.5-5.505-63-11c-66.949-19.42-137.681-30.29-203-53C317.272,1429.24,74.332,1343.44,3,1086q-1.5-30-3-60C-0.01,922.822,32.544,854.053,72,791,177.946,621.692,368.962,541.8,576,473l111-26,59-4c23.41-7.3,55.1-3.749,79-10l36-1c17.965-4.672,39.114-.836,59-6,40.066-10.4,113.65-14.318,154-2,21.7,6.623,108.58,1.124,119,11q27.495,74.993,55,150c-0.33.333-.67,0.667-1,1-305.3-1.474-592.636,15.133-814,104C288.181,748.138,186.552,796.532,144,959c-8.429,32.182,5.225,83.52,12,104,25.878,78.22,62.188,137.57,124,179,42.444,28.45,85.493,58.48,136,80C635.74,1415.61,928.824,1427.21,1241,1428Zm439-852c47.86-.117,103.47,31.631,135,51,75.81,46.571,120,105.388,159,189,11.35,24.326,9.78,50.55,19,78,11.61,34.594,12.52,131.95,2,170-41.74,150.96-84.5,228.76-197,309-31.3,22.33-73.57,49.95-118,57v-37c14.39-30.95,23.11-62.48,41-90,41.29-63.52,82.68-125.39,118-195,10.81-21.3,44.27-94.41,34-132-9.6-35.127-15.68-67.327-32-95-20.64-34.987-51.78-60.073-76-91C1726.09,740.321,1682.07,660.1,1680,576ZM978,937c51.38-1.017,85.78,12.063,104,44,18.36,32.18.91,73.39-22,86-56.13,30.89-155.756-1.67-127-80l29-42Z"/>
</svg>
