<svg xmlns="http://www.w3.org/2000/svg" width="4188.59" height="2918.03" viewBox="0 0 4188.59 2918.03">
  <defs>
    <style>
      .cls-1 {
        fill-rule: evenodd;
      }
    </style>
  </defs>
  <path id="logotipo" class="cls-1" d="M3465,2087c163.22,4.78,272.04,115.33,336,221,67.44,111.43,111.67,236.68,143,387l15,117q1.005,34.5,2,69c4.75,30.12,5.82,70.26,1,100-7.07,43.6-.91,91.72-8,132-9.94,56.51-12.35,105.83-25,158-33.42,137.79-85.35,262.51-159,361-71.97,96.24-224.85,219.71-403,156-48.6-17.38-89.18-49.15-127-78-59.83-45.64-98.43-115.88-138-182,0.33-1,.67-2,1-3h1q42,9.495,84,19c16.6,3.02,51.37,1.61,63,9,11.79,7.5,19.64,29.03,30,39,49.94,48.07,121.42,120.01,230,91,20.32-5.43,42.83-14.15,60-24,67.19-38.54,110.95-106.69,150-174,53.26-91.82,80.58-200.62,108-320,8.47-36.88,3.52-69.66,10-109,10.43-63.31,10.63-155.7,0-219q-1.005-24.495-2-49-10.995-66-22-132c-16.65-59.4-35.63-117.02-57-170-40.1-99.42-95.53-193.24-180-248-19.39-12.57-43.08-19.18-66-28l-28-3c-90.03-17.97-149.76,48.04-197,88q-18.495,22.005-37,44l-148,27v-3c64.88-110.03,133.52-196.1,252-253,14.71-7.07,38.24-12.45,53-16Q3436,2090.505,3465,2087Zm0,364c30.67-.23,134.64.69,150,10,2.45,11.56,11.07,21.23,15,31l36,87-2,2q-46.995-6.495-94-13-37.5-.495-75-1c-52.25-.56-109.6-0.41-155,7-32.32,5.28-58.15,1.64-89,9-43.48,10.38-88.76,16.57-131,29-109.8,32.31-202.81,75.26-281,138-47.69,38.26-126.77,116.39-111,208q1.005,16.5,2,33c57.44,185.82,274.13,260.55,471,310,55.41,13.92,116.44,13.41,176,23q48,0.495,96,1,55.5-1.005,111-2c13.96-2.66,67.96-13.87,77-10-2.57,20.2-40.07,111.76-51,119-13.69,9.08-72.9,7-96,7-78.76,0-161.45,4.87-233-8-284.58-51.17-500.21-125.35-628-334-60.34-98.53-43.61-230.65,12-318,107.82-169.37,304.08-256.3,533-304,60.71-12.65,122.89-12.06,186-22Q3424.5,2452,3465,2451Zm585,130c25.86,3.66,84.87,52.62,106,68,71.79,52.25,137.77,125.23,162,224,42.22,172.13-79.81,304.07-172,371-24.13,17.52-64.42,53.65-96,60l-1-1q10.5-54.495,21-109,2.505-18.495,5-37l47-38c37.13-29.84,101.48-115.57,89-192-10.21-62.5-37.62-108.6-74-145q-30.99-27.495-62-55-5.505-36.99-11-74C4059.87,2633.55,4045.34,2601.77,4050,2581Zm-953,165c1.67,0.67,3.33,1.33,5,2q-5.505,49.995-11,100-1.005,32.49-2,65-0.495,28.995-1,58,3.495,54.99,7,110c2.87,17.89,9.52,37.55,6,57h-5c-39.53-18.34-80.75-29.47-115-52-8.07-45.06-7-93.72-7-146,0-25.96-1.83-56.23,2-79l6-57,18-9C3025.19,2780.07,3077.66,2763.83,3097,2746Zm358,147c24.47-.67,43.15,3.91,57,14,31.23,22.76,19.41,80.38-11,94-51,22.85-122.22-17.87-95-74C3417.03,2904.24,3433.35,2905.29,3455,2893ZM3172,4192c74.11,2.95,56.01,80.47,56,154v463c0.01,66.92,17.03,169.6-39,182-88.75,19.64-66.01-107.61-66-177V4375c0-39.34-8.48-135.02,7-159C3140.7,4199.43,3153.37,4201.28,3172,4192Zm1026,0c19.04,1.27,37.66,6.92,46,19,17.95,25.99,9,123.12,9,167q-0.495,287.97-1,576c-7.2,28.24-50.35,50.74-82,29-15.32-10.52-14.32-26.57-24-43h-5l-26,20c-19.92,13.18-50.21,25.95-76,31q-30,.495-60,1c-27.38-4.45-48.06-2.09-70-9-92.5-29.15-166.61-100.02-188-199-32.55-150.63,66.7-277.99,173-310,35.49-10.69,95.84-25.82,144-12,42.59,12.22,72.5,32.05,104,54,2.33-1,4.67-2,7-3V4306c0-27.24-5.39-68.85,5-88C4164.02,4199.54,4178.52,4201.62,4198,4192Zm491,261c125.37,1.31,213.52,72.64,252,162,15.93,36.99,39.12,103.36,1,134-24.46,19.66-57.49,15-101,15H4626c-26.67,0-72.85-6.41-92,4,4.6,82.37,124.03,156,218,116,16.94-7.21,35.17-18.92,49-30,13.85-11.1,22.65-27.07,41-34,38.57-14.56,77.83,18.2,73,54-4.65,34.42-39.27,58.52-63,75-22.64,15.72-48.59,31.26-77,41-105.34,36.12-212.29-13.74-268-60-62.97-52.28-115.06-175.91-75-287,20.12-55.8,58.46-107.33,104-138,28.08-18.91,59.67-32.99,96-44C4649.04,4455.84,4674.13,4460.72,4689,4453Zm-3094,1c47.01,0.55,77,46.37,48,88-13.48,19.35-53.07,22.37-76,32-40.44,16.97-70.96,61.49-83,107-6.02,22.74-4,49.36-4,76v129c0,25.28,4.67,62.37-5,80-7.86,14.33-37.05,34.59-65,24-39.01-14.79-34.01-58.21-34-112V4603c0-38.74-6.45-94.5,10-118,16.49-23.55,64.68-25.23,83-2,4.59,5.82,6.81,31.01,20,27l43-34C1549.46,4464.49,1576.11,4465.4,1595,4454Zm443,5c67.48-1.27,120.06,25.53,154,59,3.33-.67,6.67-1.33,10-2,6.62-60.01,82.13-68.35,101-17,8.64,23.52,2,101.67,2,133v222c0,30.4,6.81,74.74-2,101-9.22,27.48-51.45,50.39-83,27-13.28-9.85-13.22-27.56-23-41-15.17,1.26-26.65,18.93-38,26q-16.995,7.5-34,15c-53.32,21.43-142.98,10.79-190-6-100.94-36.04-203.71-180.13-154-330,10.02-30.21,26.53-59.19,44-83,32.46-44.24,83.6-76.87,142-95q19.995-4.005,40-8Q2022.5,4459.505,2038,4459Zm839,7c29.94-.28,47.23,9.01,56,29,5.43,12.37,3,33.46,3,50v334c0,24.61,6.36,68.74-4,86-8.81,14.68-38.61,37.19-67,24-16.4-7.61-22.19-23.28-35-34h-1c-20.28,15.66-39.49,35.75-68,43-128.89,32.79-226.7-55.36-262-141-17.66-42.85-2.67-102.06-11-158-6.13-41.15-5.14-194.17,10-215,23.23-31.96,84.59-15.22,92,19q0.495,39,1,78c-0.02,130.6-23.73,261.36,68,305,16.37,7.79,40.2,18.54,69,13,54.71-10.53,112.25-60.23,105-128V4576c0-23.23-5.88-62.25,3-80C2845.2,4477.62,2856.52,4474.09,2877,4466Zm2241,5c57.39,0.41,60.97,47.64,80,86q42.99,90.495,86,181c6.79,15.09,22.44,62.93,34,70h5q71.49-154.98,143-310c14.61-23.39,52.56-36.8,80-16,39.13,29.66,1.89,92.09-13,123-43.87,91.11-85.65,186.18-130,277-22.13,45.33-26.93,100.59-86,110-44.73,7.13-66.95-81.85-82-111q-79.485-170.49-159-341C5064.26,4495.49,5093.92,4484.42,5118,4471Zm-1151,88c-10.8,4.77-21.55,3.82-34,8-48.08,16.12-88.39,57.34-105,105-34.17,98.03,28.56,166.38,87,200,18.27,10.51,55.53,25.91,89,18,62.07-14.67,113.73-48.28,134-104C4184.07,4659.34,4089.23,4558.16,3967,4559Zm-1949,2q-24,7.005-48,14c-40.35,20.71-74.1,53.15-90,98-34.3,96.71,32.84,181.79,100,205,18.05,6.24,44.78,17.84,73,12,64.59-13.37,113.62-47.91,136-103C2239.9,4661.73,2136.62,4560.17,2018,4561Zm2666,0-34,6c-37.5,10.49-95.63,48.52-104,86,1,1.33,2,2.67,3,4h198c26.83,0,67.33,5.94,90-2-0.97-16.32-10.44-22.55-18-32C4789.66,4586.32,4750.54,4560.54,4684,4561ZM3483,4863c78.89-.25,88.1,110.8,24,128-48.21,12.93-97.31-30.34-85-75C3431.72,4880.72,3450.87,4876.47,3483,4863Z" transform="translate(-1374.75 -2087)"/>
</svg>
