<svg xmlns="http://www.w3.org/2000/svg" width="1582.724" height="1272.939" viewBox="0 0 1582.724 1272.939">
  <defs>
    <style>
      .cls-1 {
        fill-rule: evenodd;
      }
    </style>
  </defs>
  <path id="Preenchimento_de_Cor_1" data-name="Preenchimento de Cor 1" class="cls-1" d="M363.984,1492.47c-1.706-89.51,37.349-133.81,75-186,25.157-34.87,48.743-69.81,72-106,16.02-24.93,34.435-46.01,43-79,2.934-11.3-1.556-25.52-3-33q-0.5-22.995-1-46-21-27.495-42-55c-22.361-33.642-36.092-72.984-50-115-17.723-53.543-3.419-132.465,9-179,42.857-160.586,144.967-246.164,294-300,40.354-14.578,86.675-16.955,130-29h39c38,0,86.656-3.817,118,4,22.91,5.711,41.96,2.641,63,9,130.13,39.317,221.08,94.848,282,203,26.54,47.106,58.88,128.544,40,208q-1.5,14.5-3,29c-32.01,91.075-71.98,153.478-136,211-23.81,21.4-55.72,31.54-81,52v1c46.82,0.3,113.58,37.97,147,56,81.38,43.9,183,103.54,183,228,0.01,26.07-1.69,50.91-10,71a404.82,404.82,0,0,1-40,75c89.81-14.76,192.18-8.9,288-9,2.68,3.61,5.36,6.24,10,8,0.37,6.56,1.21,17.65-2,21-6.88,7.22-30.57,8.39-46,6h-131q-81.48,6.495-163,13c-16.96,6.34-36.03,18.3-55,25-32.01,11.31-134.52,17.54-171,6-19.43-6.15-40.52-10.56-58-19q-16.995-10.5-34-21c-8.71,14.57-44.32,23.17-67,20,0.11,11.95,1.04,25.01-4,32-9.74,13.51-32.99,13.44-51,19-38.582,11.9-79.03,24-129,24h-50c-10.6-4.47-27.092-9.38-34-18-8.651-10.8-14.9-69.4-13-87-40.656-.09-79.67-3-123-3h-34q-9,7.995-18,16-26.5,15.495-53,31c-80.111,33.64-146.457,4.58-181-48-47.781-3-104.547,3.89-154,4q-5.5-5.505-11-11c-0.367-6.23-1.014-15.88,2-19C222.64,1491.15,335.486,1492.32,363.984,1492.47Zm592-1096-83,7c-48.119,12.691-98.02,18.968-140,38-109.289,49.547-170.139,106.487-219,217-8.191,18.527-20.109,46.748-21,68-0.632,15.08-7.017,38.687-10,55-9.084,49.69,8.642,100.576,22,129,15.57,33.129,27.388,68.135,52,92h1c1.029-27.5,47.552-75.682,88-62,36.282,12.272,66.973,32.4,89,59,79.128,95.561,58.766,286.431-2,388-22.583,37.75-46.232,73.04-73,106,42.087-.11,80.835,2.88,120,3-11.544-78.65-17.277-149.5,39-181,14.515-8.12,36.061-11.94,53-16q13.5-1.005,27-2c-13.091-1.43-18.87-11.5-26-19-62.313-65.56,33.448-82.49,38-128-9.109-1.29-14.459-6.16-19-12v-20l5-3c29.481-.98,60,30.65,42,66-12.293,24.14-52.428,34-53,67,7.3,11.05,17.768,16.76,25,28,0.229,11.67-3.166,13.46-7,20h70c32.2,8.99,74.556,29.42,75,69,22.65-5.36,40.21-9.46,64-3,20.77-15.81,44.32-21.84,76-28,29.32-5.7,61.08,3.17,86-4,20.56-5.91,32.33-22.6,51-27,6.91,4.7,13.77,6.54,16,16v12c-55.61,72.7-200.28-6.61-228,100-2.78,10.72-3.8,24.39,0,37q8.01,15.495,16,31c26.65,33.88,113.42,61.18,178,50h27c17.87-4.92,38.97-5.91,57-12,61.13-20.64,87.96-58.9,109-120,6.04-17.52,17.75-60.41,10-87-5.12-17.58-11.59-39.38-22-55-36.15-54.3-148.81-119.65-217-144-27.68-9.89-57.98-14.57-88-22-17.12-4.24-37.7,3.87-49-3-6.45-3.92-9.07-13.26-9-24,31.78-23.11,76.32-33.48,109-55,62.63-41.238,120.15-104.858,148-174,37.64-93.414,20.36-193.918-22-267C1289.35,462.871,1146.97,396.894,955.984,396.469Zm112,303c37.03,0.054,34.08,77.233,43,108,4.69,16.153-1.52,31.632-12,34-8.91,2.014-17.9-5.625-21-10-7.63-10.8-22.03-105.953-20-125Q1062.99,702.969,1067.98,699.469Zm-256,38c10.5,0.065,20.018,3.714,24,10,5.425,8.562.765,22.56,3,35,2.731,15.2,17.083,65.538,12,78-4.783,9.333-20.039,14.813-28,5-9.884-5.158-30.168-95.268-21-118C804.481,741.893,808.026,741.253,811.984,737.469Zm-186,238c-3.478,3.424-8.591,3.3-13,6-13.4,8.2-24.395,26.161-30,42-14.405,40.72,15.18,94.55-3,133-45.551,96.34-125.418,166.83-172,263-25.953,53.58-14.065,112.38,36,130,52.823,18.59,114.557-14.41,141-34,74.419-55.14,119.326-139.22,154-234q7.5-35.505,15-71v-62c-3.253-20.34.953-37.7-6-55C726.016,1038.81,701.886,974.748,625.984,975.469Zm320,354c-11.241,4.45-28.217-1.08-42,2-35.52,7.93-94.252,8.74-96,49,16.993,5.74,35.025,13.9,55,19,50.841,12.99,135.064-19.82,151-42v-4C993.827,1340.75,981.574,1329.55,945.984,1329.47Zm141,63c-11.73,4.72-32.99,2.88-35,17h1c4.23-2.63,33.78-11.41,35-13C1088.39,1393.56,1089.12,1394.81,1086.98,1392.47Zm-68,8c-38.1,43.87-158.535,39.93-213,15q1.5,15.495,3,31c21.748,1.5,44.419,9.73,69,12,46.95,4.33,122.846-24.86,143-51C1020.18,1404,1021.07,1402.76,1018.98,1400.47Zm35,87c15.74,0.65,26.17-.99,33-9-4-12.94-7.56-28.61-7-43-11.34,5.7-21.06,10.95-28,21Q1052.985,1471.965,1053.98,1487.47Zm-36-34c-7.78,8.57-19.213,10.1-30,16-52.614,28.77-117.475,24.67-180,11,2.153,5.81,3.366,12.09,2,19,40.285,4.75,92.181,22.5,141,10,31.98-8.19,46.537-26.53,70-38C1020.45,1465.3,1020.85,1455.5,1017.98,1453.47Zm85,57c-13.96,14.16-26.44,5.51-46,13,0.34,0.67.67,1.33,1,2,19.49,4.14,36.57-2.68,50-10v-2Q1105.49,1511.97,1102.98,1510.47Zm-79,4c-49.539,42.46-138.874,36.12-210,20v15c4.267,11.96,7.321,34.27,6,47,58.5,4.23,120.415,1.7,166-15,12.6-4.62,38.646-3.15,46-13Q1027.99,1541.47,1023.98,1514.47Z" transform="translate(-208.656 -363.531)"/>
</svg>
