<svg xmlns="http://www.w3.org/2000/svg" width="1575" height="1297.061" viewBox="0 0 1575 1297.061">
  <defs>
    <style>
      .cls-1 {
        fill-rule: evenodd;
      }
    </style>
  </defs>
  <path id="Preenchimento_de_Cor_1" data-name="Preenchimento de Cor 1" class="cls-1" d="M357.5,1524.47c-38.718.36-126.945,14.35-145-8v-20c38.1-8.33,92.072-6.94,134-7-8.5-18.43-10.284-39.54-17-60-24.242-73.86-40.754-150.29-66-224-9.218-26.91-34.413-84.48-28-112,2.333-1.33,4.667-2.67,7-4,12.454,0.11,19.186,4.92,29,7,19.573,4.14,42.219,2.37,60,6h32c36.562,7.21,83.855,2.18,121,9h48c37.2,6.04,81.644.97,120,7h28c20.048,3.65,59.16,5.95,79,4,17.7-51.55,57.012-97.26,92-133,10.853-11.085,22.57-29.267,38-35l-41-20a233.8,233.8,0,0,1-76-93c-27.309-60.618-22.583-153.177,4-209,51.895-108.977,142.519-181.987,255-230,55.61-23.736,118.92-50.993,197-51h73c38.56,12.226,77.41,16.607,111,32,71.2,32.631,125.91,90.87,164,157,7.91,13.734,10.09,30.013,16,43,12.01,26.4,24.67,101.007,12,140-8.12,24.969-14.24,50.369-26,72-31.72,58.345-77.22,103.7-129,142l-58,33v1c30.97,8.874,60.04,43.521,78,67,35.94,46.99,62.32,97.22,79,165,29.83,121.22-27.15,245.25-98,285l2,2q46.5-.495,93-1h228q7.005,5.49,14,11v20c-25.68,7.57-67.76,4-100,4h-286c-18.63,6.3-38.11,25.76-56,35-24.34,12.56-51.34,21.67-78,31-26.18,9.16-58.95-1.35-89,6-18.49,4.52-40.98,12.69-59,19-37.97,13.29-75.87,15.26-115,26-0.67,2.33-1.33,4.67-2,7a458.376,458.376,0,0,1-121-14l-39-3c-38.686-7.48-85.524-9.41-124-19l-41-3c-52.653-12.11-115.833-9.78-168-25C452.82,1567.93,361.915,1593.22,357.5,1524.47Zm889-1140c-11.05,4.949-26.73-.332-41,3-33.65,7.857-68.29,10.369-99,22-122.778,46.5-227.1,113.077-290,216-42.8,70.027-41.96,171.152,3,238,15.18,22.57,39.267,42.134,65,54,15.732,7.253,32.266,8.82,45,17,0.775,8.972,2.982,16.151,3,28-55.983,38.581-104.035,99.521-136,162,14.036-.02,27.839-1.39,39,3,23.757,9.34,36.933,82.47,47,110,20.91,57.17,38.134,126.45,63,185,4.7,11.07,11.565,57.4,19,61h18c25.12,5.86,58.85,13.04,86,13v-1c-13.08-28.23,6.55-77.86,18-90,35.97-38.14,111.86-40.82,152-78,22.85-21.17,43.72-50.76,59-79,6.89-12.73,11.91-42.72,24-50,2.4-2.42,6.88-2.27,12-2q5.505,6,11,12c8.79,18.41-20.64,60.5-28,73-24.88,42.22-56.19,83.13-100,106-34.14,17.83-88.03,19.06-109,50-16.66,24.57-8.56,73,6,92,33.99,44.35,130.55,36.5,182,13,88.84-40.59,175.32-95.14,212-185,9.42-23.08,23.93-78.59,15-117q-6-32.505-12-65c-20.45-55.42-45.47-103.88-84-141a250.057,250.057,0,0,0-52-38q-17.505-8-35-16c-4.38-5.011-4.09-13.449-4-23,1.33-.667,2.67-1.334,4-2,5.65-7.65,69.64-35.311,83-44,52.21-33.965,97.46-81.36,128-137,33.12-60.339,31.1-151.07,1-212C1498.59,455.379,1403.81,387.165,1246.5,384.469Zm-80,265c10.41,0.693,21.27,6.768,25,14,5.95,11.551-.02,33.182,0,48,0.04,27.036,7.4,42.947,7,69l-9,7h-16C1152.32,763.323,1140.25,678.337,1166.5,649.469Zm-195,6c49.21-.1,14.966,46.019,24,82,4.292,17.095,12.2,31.607,12,52q-5.5,5-11,10h-12C960.719,772.951,940.665,692.545,971.5,655.469Zm-699,476c6.083,28.35,16.83,57.81,26,84,10.041,28.68,14.222,57.84,25,84q1.5,9.495,3,19c10.593,30.88,18.637,66.78,31,97,11.4,27.86,14.3,57.75,25,84,4.666,11.44,2.507,23.11,9,32,11.927,12.88,112.111,13.93,139,21,60.138,15.82,129.815,12.84,190,28l41,3c31.3,7.21,68.8,8.84,100,16l42,3c18.267,5.64,42.918,8.85,65,9-17.811-45.05-28.715-94.71-43-141-2.212-7.17-1.979-17.66-6-27-14.4-33.45-20.334-70.55-34-106-21.452-55.64-42.74-118.53-60-175-70.406-6.75-153.617-1.77-224-13l-121-3c-32.324-6.22-71.889.22-106-6C343.359,1134.79,305.335,1131.61,272.5,1131.47Zm726,474c24.36,0.08,47.94-10.15,68-16q28.5-6.495,57-13v-1c-14.65-6.17-25.26-17.86-35-29q-4.5-7.005-9-14-52.995-7.005-106-14Q986,1561.97,998.5,1605.47Z" transform="translate(-212.5 -351.469)"/>
</svg>
